<?xml version="1.0" encoding="UTF-8" standalone="no"?>
<svg
   xmlns:dc="http://purl.org/dc/elements/1.1/"
   xmlns:cc="http://creativecommons.org/ns#"
   xmlns:rdf="http://www.w3.org/1999/02/22-rdf-syntax-ns#"
   xmlns:svg="http://www.w3.org/2000/svg"
   xmlns="http://www.w3.org/2000/svg"
   width="44"
   height="44"
   viewBox="0 0 32.999998 32.999998"
   version="1.2"
   id="svg192">
  <metadata
     id="metadata196">
    <rdf:RDF>
      <cc:Work
         rdf:about="">
        <dc:format>image/svg+xml</dc:format>
        <dc:type
           rdf:resource="http://purl.org/dc/dcmitype/StillImage" />
        <dc:title></dc:title>
      </cc:Work>
    </rdf:RDF>
  </metadata>
  <defs
     id="defs5">
    <clipPath
       id="clip1">
      <path
         d="M 0,276 H 530.97266 V 551.98437 H 0 Z m 0,0"
         id="path2" />
    </clipPath>
  </defs>
  <g
     id="surface394">
    <path
       style="fill:#ffffff;fill-opacity:1;fill-rule:evenodd;stroke:none"
       d="m 16.499998,0.61249605 c -8.9960935,0 -16.2890625,7.29296895 -16.2890625,16.28906295 0,7.195312 4.667969,13.300781 11.1406255,15.457031 0.8125,0.148438 1.113281,-0.355469 1.113281,-0.785156 0,-0.386719 -0.01563,-1.410156 -0.02344,-2.769532 -4.5312475,0.984376 -5.4882785,-2.183593 -5.4882785,-2.183593 -0.738281,-1.882813 -1.808594,-2.382813 -1.808594,-2.382813 -1.480468,-1.011718 0.113282,-0.992187 0.113282,-0.992187 1.632812,0.117187 2.492187,1.679687 2.492187,1.679687 1.453125,2.488282 3.8164055,1.769532 4.7421865,1.355469 0.148438,-1.054687 0.570313,-1.773437 1.035157,-2.179687 -3.6171875,-0.410157 -7.4218745,-1.808594 -7.4218745,-8.050782 0,-1.777344 0.636718,-3.230468 1.679687,-4.371094 -0.167969,-0.414062 -0.726562,-2.066406 0.15625,-4.3125 0,0 1.371094,-0.4375 4.4804685,1.671876 1.300781,-0.363282 2.695312,-0.542969 4.078125,-0.546876 1.382813,0.00391 2.777344,0.183594 4.078125,0.546876 3.109375,-2.109376 4.476562,-1.671876 4.476562,-1.671876 0.886719,2.246094 0.328126,3.898438 0.160157,4.3125 1.046875,1.140626 1.675781,2.59375 1.675781,4.371094 0,6.257813 -3.808594,7.632813 -7.4375,8.039063 0.585938,0.5 1.105469,1.496093 1.105469,3.015625 0,2.175781 -0.01953,3.933594 -0.01953,4.46875 0,0.433594 0.292968,0.941406 1.121093,0.785156 6.464844,-2.160156 11.128907,-8.261719 11.128907,-15.457031 0,-8.996094 -7.292969,-16.28906295 -16.289063,-16.28906295"
       id="path11" />
  </g>
</svg>
